<svg width="360" height="360" viewBox="0 0 360 360" fill="none" xmlns="http://www.w3.org/2000/svg">
<path d="M178.698 40.4814C190.772 39.1371 191.577 52.8945 193.666 61.252L207.572 116.309C210.798 128.848 216.242 138.505 230.915 140.012C234.82 140.414 238.797 139.834 242.685 139.446L289.643 134.389C299.012 133.277 308.424 131.98 317.827 131.208C329.519 130.248 335.948 143.319 326.904 151.358C324.435 153.553 320.851 155.072 317.964 156.679L304.665 164.243C287.944 173.929 269.745 186.631 254.569 198.442C235.547 213.244 238.102 218.259 246.921 240.759C253.361 257.189 260.337 273.435 267.419 289.602C270.715 297.125 277.842 307.998 271.111 315.643C261.97 326.026 251.192 312.434 244.842 306.527C232.345 294.899 195.956 257.426 180.807 258.193C171.289 254.288 155.022 270.856 148.815 276.214C135.499 287.711 122.419 299.45 109.656 311.555C107.544 313.558 105.387 315.881 102.89 317.395C95.3198 321.984 84.8559 316.327 86.0003 307.166C86.3068 304.707 87.7555 302.259 88.7087 300L100.584 271.992C104.373 263.011 108.179 254.056 111.778 244.993L116.557 232.686C120.471 222.349 121.9 214.425 113.741 204.77C103.622 192.796 54.3288 163.398 40.5391 155.603C35.3447 152.666 29.5181 150.463 28.5834 143.754C27.7461 137.744 32.2959 131.846 38.3185 131.074C42.0373 130.597 51.979 132.272 56.2478 132.775L111.742 139.06C127.231 140.788 140.08 141.535 149.506 125.719C152.053 121.446 152.788 116.889 153.849 112.125L165.882 60.4974C167.839 52.0831 168.113 41.7563 178.698 40.4814Z" fill="black"/>
<path d="M90.4527 308.485C91.2709 305.579 92.8055 302.763 93.9751 299.972L106.455 270.806C111.943 257.746 118.283 243.177 122.839 229.791C125.937 220.688 124.276 211.076 118.765 203.277C110.311 191.314 62.9374 162.912 50.0736 155.558C46.8673 153.724 35.3584 147.687 34.1027 144.938C32.5459 141.531 34.1758 136.525 38.1882 135.828C40.9877 135.341 52.8698 137.291 56.403 137.735L112.055 144.107C129.073 145.896 144.33 145.178 153.996 127.715C156.769 122.704 157.768 117.025 159.048 111.506L162.349 97.0265C165.082 84.9353 167.763 72.8062 170.755 60.7783C172.235 54.8315 172.685 41.6596 182.893 45.9219C187.504 48.8651 187.591 56.9171 188.93 62.1373L201.95 113.889C203.319 119.354 204.376 124.911 207.211 129.858C215.321 144.013 228.357 145.681 242.711 144.164L305.939 137.553C309.501 137.193 318.891 135.601 321.751 136.311C325.799 137.316 327.295 142.693 325.177 146.017C323.52 148.618 312.578 153.978 309.504 155.762C296.767 163.155 248.603 192.914 240.312 204.699C230.93 218.036 237.667 230.379 242.853 243.448C248.944 258.798 255.321 274.032 261.929 289.163L266.901 300.506C269.012 305.344 272.226 313.014 263.563 314.51C259.757 315.168 254.881 309.24 252.43 306.974L230.431 286.56C219.59 276.468 208.439 266.164 195.909 258.193C184.952 252.548 174.795 250.11 164.23 257.435C156.676 262.672 148.308 270.495 141.281 276.677C131.503 285.278 121.661 293.729 112.156 302.637C107.045 307.427 95.1785 322.577 90.4527 308.485Z" fill="#FFD12D"/>
<path d="M90.4527 308.485C91.2709 305.579 92.8054 302.763 93.9751 299.972L106.455 270.806C111.943 257.746 118.283 243.177 122.839 229.791C125.937 220.688 124.276 211.076 118.765 203.277C110.311 191.314 62.9374 162.912 50.0736 155.558C46.8673 153.724 35.3584 147.687 34.1027 144.938C32.5459 141.531 34.1758 136.525 38.1882 135.828C40.9877 135.341 52.8698 137.291 56.403 137.735L112.055 144.107C129.073 145.896 144.33 145.178 153.996 127.715C156.769 122.704 157.768 117.025 159.048 111.506L162.349 97.0265C165.082 84.9353 167.763 72.8062 170.755 60.7783C172.235 54.8315 172.685 41.6596 182.893 45.9219C181.844 51.0697 179.548 61.1919 179.22 66.1821C172.658 68.34 172.088 75.1428 176.985 79.1628C176.213 80.8724 173.877 89.148 174.519 90.634C170.714 93.6967 169.994 97.0546 171.472 101.55C170.622 103.074 167.095 121.043 166.477 123.892C163.859 135.965 161.793 146.706 148.744 151.309C137.368 155.322 116.545 150.793 104.61 148.721C102.429 148.342 85.9005 144.752 84.875 146.774C89.2036 149.386 90.2566 154.696 87.0301 158.724C87.7254 159.63 93.3797 162.326 94.6169 162.123L94.7814 161.887C96.3152 169.949 103.879 172.445 110.161 166.907C111.144 167.978 120.382 172.984 121.578 172.55C124.052 176.927 125.374 176.316 128.951 177.798C129.529 179.901 132.859 181.817 134.347 183.411C142.755 192.417 145.861 204.68 141.147 216.252C137.494 225.222 130.69 232.943 126.465 241.766C125.449 243.887 117.07 263.038 117.958 264.66C116.145 267.111 115.343 269.272 115.921 272.28C114.544 273.558 113.515 278.547 111.807 280.697L111.815 280.921L112.741 281.105C115.787 281.688 117.594 282.698 118.91 285.484C121.401 283.564 124.749 279.537 127.33 277.196C129.485 275.241 131.969 273.645 134.191 271.755C148.374 259.696 163.889 242.119 184.36 250.506C187.486 251.786 194.598 255.063 195.909 258.193C184.952 252.548 174.795 250.11 164.23 257.435C156.676 262.672 148.308 270.495 141.281 276.677C131.503 285.278 121.661 293.729 112.156 302.637C107.045 307.427 95.1785 322.577 90.4527 308.485Z" fill="#FFE16B"/>
<path d="M87.0302 158.724C84.487 160.905 81.0271 162.137 77.7606 160.788C68.4461 156.941 74.5384 141.486 84.875 146.774C89.2036 149.386 90.2566 154.696 87.0302 158.724Z" fill="black"/>
<path d="M79.8406 148.876C86.375 148.347 87.6825 155.621 82.0014 157.936C75.4845 158.505 74.3324 151.244 79.8406 148.876Z" fill="#335DFF"/>
<path d="M112.74 281.105C115.787 281.688 117.594 282.698 118.91 285.484C119.741 292.021 114.219 298.324 108.494 293.965C103.492 290.156 106.059 281.553 112.74 281.105Z" fill="black"/>
<path d="M112.741 284.341C117.693 284.507 116.638 290.524 113.06 292.037C108.123 292.87 108.326 285.78 112.741 284.341Z" fill="#335DFF"/>
<path d="M57.1005 140.609C66.4147 140.244 68.4663 151.7 59.664 154.24C50.3589 156.227 48.3922 142.831 57.1005 140.609Z" fill="black"/>
<path d="M57.6879 143.764C62.9779 143.6 63.5053 149.592 59.0473 151.353C53.7194 151.708 53.2272 145.451 57.6879 143.764Z" fill="#335DFF"/>
<path d="M121.578 172.55C118.493 163.07 126.661 156.073 134.686 160.349C143.832 165.221 139.141 178.465 128.951 177.798C125.374 176.316 124.052 176.927 121.578 172.55Z" fill="black"/>
<path d="M128.951 162.538C137.094 161.052 138.756 172.743 131.171 174.668C122.989 175.14 121.045 164.44 128.951 162.538Z" fill="#335DFF"/>
<path d="M94.7814 161.887C94.4995 145.874 120.185 152.463 110.161 166.907C103.879 172.445 96.3152 169.949 94.7814 161.887Z" fill="black"/>
<path d="M103.149 155.551C110.843 155.544 111.096 164.826 104.078 166.907C96.7797 166.649 95.8539 157.318 103.149 155.551Z" fill="#335DFF"/>
<path d="M174.519 90.634C182.667 86.4262 190.948 93.012 187.926 100.869C185.073 108.283 175.277 107.561 171.472 101.55C169.994 97.0546 170.714 93.6967 174.519 90.634Z" fill="black"/>
<path d="M178.265 92.4728C185.778 91.7045 188.099 100.593 180.807 103.062C173.754 103.893 171.262 94.8762 178.265 92.4728Z" fill="#335DFF"/>
<path d="M117.958 264.66C131.072 254.412 135.149 280.004 121.188 277.072C118.579 276.524 116.993 274.561 115.921 272.28C115.343 269.272 116.145 267.111 117.958 264.66Z" fill="black"/>
<path d="M123.335 265.912C128.06 265.967 129.016 272.519 123.335 274.378C117.618 274.298 117.059 267.458 123.335 265.912Z" fill="#335DFF"/>
<path d="M179.22 66.1821C192.941 63.5253 190.063 85.8653 176.985 79.1628C172.088 75.1428 172.658 68.34 179.22 66.1821Z" fill="black"/>
<path d="M180.807 69.298C183.692 69.4686 184.42 70.682 185.138 73.4079C184.48 75.5343 183.741 76.626 181.408 77.1349C175.926 77.2403 175.508 70.1546 180.807 69.298Z" fill="#335DFF"/>
<path d="M154.882 170.171C164.888 166.381 172.961 185.811 157.819 189.977C142.678 190.535 142.628 171.099 154.882 170.171Z" fill="black"/>
<path d="M154.882 173.472C163.213 170.886 166.634 183.602 157.819 186.642C148.104 188.318 145.802 175.003 154.882 173.472Z" fill="#335DFF"/>
<path d="M178.698 146.226C180.235 145.164 183.038 146.06 184.524 146.836C193.027 151.272 190.977 163.008 181.408 165.773C167.6 167.899 165.093 146.202 178.698 146.226Z" fill="black"/>
<path d="M178.698 148.876C187.874 148.499 189.568 160.161 180.807 162.538C171.509 163.639 169.876 151.072 178.698 148.876Z" fill="#335DFF"/>
<path d="M201.542 170.171C214.042 168.801 217.086 187.196 204.054 189.977C189.681 190.532 188.242 172.111 201.542 170.171Z" fill="black"/>
<path d="M201.542 173.472C210.037 172.563 212.321 183.869 204.054 186.642C194.86 188.032 192.176 175.884 201.542 173.472Z" fill="#335DFF"/>
<path d="M161.305 200.561C176.493 202.061 174.475 218.068 163.787 220.158C151.409 221.011 147.426 205.227 161.305 200.561Z" fill="black"/>
<path d="M161.305 204.238C169.994 203.675 171.653 214.092 163.787 216.88C154.939 218.101 152.554 206.372 161.305 204.238Z" fill="#335DFF"/>
<path d="M195.568 200.561C207.697 199.7 210.776 216.361 198.352 219.446C185.093 221.275 182.224 202.509 195.568 200.561Z" fill="black"/>
<path d="M195.568 203.705C203.825 203.157 205.925 213.042 198.352 216.226C189.044 217.153 186.963 206.289 195.568 203.705Z" fill="#335DFF"/>
<path d="M228.844 161.887C230.427 161.167 233.242 162.711 234.448 163.674C241.471 169.272 237.086 179.488 228.844 180.19C215.741 180.058 215.769 162.059 228.844 161.887Z" fill="black"/>
<path d="M227.642 165.04C235.807 164.226 236.814 174.698 229.731 176.92C221.632 178.309 219.307 167.348 227.642 165.04Z" fill="#335DFF"/>
<path d="M178.698 115.144C191.33 114.213 193.569 129.942 182.019 133.064C169.871 134.83 166.496 118.436 178.698 115.144Z" fill="black"/>
<path d="M179.22 118.294C187.085 117.88 188.815 127.874 181.408 129.907C173.21 130.573 171.346 120.499 179.22 118.294Z" fill="#335DFF"/>
<path d="M146.421 224.478C157.68 225.148 157.685 240.928 146.421 241.689C134.976 241.637 133.457 225.525 146.421 224.478Z" fill="black"/>
<path d="M144.855 227.445C152.177 226.855 154.654 235.846 147.137 238.553C139.472 239.318 137.884 230.084 144.855 227.445Z" fill="#335DFF"/>
<path d="M212.702 224.478C223.772 223.657 226.197 239.048 214.531 241.689C202.814 241.715 201.068 226.208 212.702 224.478Z" fill="black"/>
<path d="M213.258 227.445C220.44 227.771 221.256 236.407 214.531 238.553C206.609 238.321 205.906 228.852 213.258 227.445Z" fill="#335DFF"/>
<path d="M178.698 183.347C189.729 182.63 192.083 197.486 180.807 200.561C169.148 201.324 166.98 184.896 178.698 183.347Z" fill="black"/>
<path d="M179.22 186.642C185.609 185.73 187.188 195.386 180.406 197.352C172.894 197.458 171.533 187.95 179.22 186.642Z" fill="#335DFF"/>
<path d="M248.62 155.551C258.138 153.811 262.905 168.843 250.314 172.549C237.929 171.621 238.055 156.525 248.62 155.551Z" fill="black"/>
<path d="M248.62 158.724C255.677 158.114 257.035 167.512 250.314 169.009C243.316 169.58 241.676 161.144 248.62 158.724Z" fill="#335DFF"/>
<path d="M224.943 243.773C236.041 242.961 237.777 257.295 227.642 259.709C217.352 261.385 214.346 246.274 224.943 243.773Z" fill="black"/>
<path d="M225.572 247.118C232.493 246.942 233.002 254.838 226.973 256.655C220.464 257.008 219.445 248.626 225.572 247.118Z" fill="#335DFF"/>
<path d="M133.154 243.081C142.059 241.994 145.778 255.6 135.123 258.74C124.88 260.304 121.501 244.962 133.154 243.081Z" fill="black"/>
<path d="M133.154 246.244C139.045 246.295 140.553 253.218 135.123 255.669C128.14 256.799 126.774 247.741 133.154 246.244Z" fill="#335DFF"/>
<path d="M268.48 150.281C279.311 149.656 281.359 161.981 271.619 165.773C261.02 166.507 258.605 153.313 268.48 150.281Z" fill="black"/>
<path d="M269.495 153.281C275.892 153.781 276.191 160.87 270.49 162.538C264.394 162.706 263.775 154.599 269.495 153.281Z" fill="#335DFF"/>
<path d="M236.176 263.818C245.592 262.979 246.781 275.24 237.938 277.31C228.454 278.042 226.81 265.663 236.176 263.818Z" fill="black"/>
<path d="M236.176 266.957C241.187 266.235 241.832 272.31 237.938 274.378C232.907 274.775 231.253 268.948 236.176 266.957Z" fill="#335DFF"/>
<path d="M287.853 146.774C296.356 146.178 298.294 157.097 290.156 159.573C281.321 160.804 279.173 148.843 287.853 146.774Z" fill="black"/>
<path d="M288.462 150.281C292.844 149.93 293.476 155.047 289.385 156.537C284.96 156.66 283.96 151.11 288.462 150.281Z" fill="#335DFF"/>
<path d="M247.087 281.723C255.593 281.172 257.656 292.298 249.418 294.491C240.153 295.154 238.925 283.811 247.087 281.723Z" fill="black"/>
<path d="M247.637 284.869C252.088 284.711 252.436 290.012 248.62 291.385C244.005 291.576 243.843 286.56 247.637 284.869Z" fill="#335DFF"/>
<path d="M304.193 143.111C311.404 141.805 314.283 151.638 306.384 154.24C298.918 154.358 296.083 144.596 304.193 143.111Z" fill="black"/>
<path d="M304.192 146.226C307.631 145.931 309.213 148.917 306.384 151.353C303.211 151.068 300.869 148.137 304.192 146.226Z" fill="#335DFF"/>
</svg>
