<svg width="160" height="160" viewBox="0 0 160 160" fill="none" xmlns="http://www.w3.org/2000/svg">
<path d="M125.031 10.7652C77.9462 4.29273 49.3588 15.6196 39.2691 44.7458C32.5426 64.1633 34.2242 83.5808 44.3139 102.998C51.0404 115.943 47.6772 132.124 34.2242 151.542" stroke="#0A64C8" stroke-width="12" stroke-linecap="round"/>
<path d="M84.6727 32.1244C125.031 22.4157 146.892 36.9788 150.256 75.8138C151.601 98.4675 138.148 104.94 109.897 95.2312" stroke="#0A64C8" stroke-width="12" stroke-linecap="round"/>
<path d="M72.565 69.9885C77.0229 69.9885 80.6368 66.5111 80.6368 62.2215C80.6368 57.9319 77.0229 54.4545 72.565 54.4545C68.1071 54.4545 64.4933 57.9319 64.4933 62.2215C64.4933 66.5111 68.1071 69.9885 72.565 69.9885Z" fill="#0A64C8"/>
<path d="M58.7473 100.759C43.8711 108.415 16.5204 105.3 9 96.147" stroke="#0A64C8" stroke-width="12" stroke-linecap="round"/>
</svg>
